<?xml version="1.0" standalone="no"?>
<!DOCTYPE svg PUBLIC "-//W3C//DTD SVG 20010904//EN"
 "http://www.w3.org/TR/2001/REC-SVG-20010904/DTD/svg10.dtd">
<svg version="1.0" xmlns="http://www.w3.org/2000/svg"
 width="700.000000pt" height="700.000000pt" viewBox="0 0 700.000000 700.000000"
 preserveAspectRatio="xMidYMid meet">
<metadata>
Created by potrace 1.11, written by Peter Selinger 2001-2013
</metadata>
<g transform="translate(0.000000,700.000000) scale(0.100000,-0.100000)"
fill="#000000" stroke="none">
<path d="M3338 6613 c-171 -97 -205 -138 -292 -354 -30 -74 -58 -97 -133 -105
-42 -5 -75 3 -263 71 -118 42 -279 99 -358 127 l-143 49 -157 -79 c-369 -185
-629 -376 -926 -680 -50 -52 -92 -97 -93 -100 -4 -10 275 -139 417 -192 321
-121 523 -182 820 -246 140 -30 183 -35 285 -35 66 0 143 3 170 6 96 9 153 16
171 19 11 2 39 7 64 11 175 27 460 111 655 194 291 124 627 330 870 535 132
110 505 501 505 529 0 11 -361 146 -480 178 -319 87 -569 124 -897 133 l-103
3 -112 -64z m482 -117 c14 -2 53 -7 87 -10 95 -10 269 -43 396 -75 126 -33
324 -96 347 -110 11 -8 -18 -41 -136 -158 -147 -145 -182 -176 -314 -279 -340
-266 -840 -503 -1220 -578 -140 -27 -182 -34 -269 -43 -97 -9 -314 -10 -366
-1 -70 12 -259 57 -356 84 -52 14 -111 30 -131 35 -122 30 -608 213 -608 229
0 8 99 103 179 170 30 25 59 50 65 55 91 82 352 250 533 342 l133 68 117 -41
c65 -23 208 -75 318 -115 198 -73 201 -73 300 -74 86 0 107 4 149 24 88 44
122 90 177 237 24 65 57 120 85 146 11 9 55 37 99 63 l80 46 155 -5 c85 -3
166 -7 180 -10z"/>
<path d="M4997 6134 l-89 -145 137 -131 c303 -291 476 -555 595 -908 19 -54
44 -156 55 -215 17 -96 35 -219 40 -280 4 -38 9 -81 11 -95 6 -32 5 -385 -1
-425 -2 -16 -7 -55 -10 -85 -5 -46 -19 -124 -41 -226 -2 -12 -18 -80 -35 -150
-47 -198 -48 -187 13 -129 29 28 55 52 58 55 3 3 55 50 115 105 61 55 112 103
115 106 4 5 174 144 262 215 46 36 286 200 388 265 63 39 116 73 117 74 5 3
-66 249 -95 335 -118 341 -295 660 -526 945 -44 55 -90 110 -101 121 -201 211
-283 286 -438 407 -136 106 -446 307 -473 307 -5 0 -49 -66 -97 -146z m254
-136 c84 -55 236 -165 265 -193 6 -5 39 -32 72 -60 86 -70 285 -273 374 -381
248 -301 437 -654 550 -1023 15 -52 25 -98 21 -102 -5 -3 -78 -53 -163 -110
-131 -88 -291 -207 -449 -335 l-34 -28 6 32 c34 172 25 620 -17 849 -2 10 -7
38 -11 63 -53 343 -220 709 -457 1000 -38 47 -119 135 -179 196 -103 104 -110
113 -97 133 7 12 15 21 19 21 3 0 48 -28 100 -62z"/>
<path d="M4640 5807 c-231 -221 -495 -405 -750 -524 -139 -65 -164 -77 -168
-79 -2 -1 18 -42 45 -91 84 -151 176 -384 197 -497 2 -12 14 -59 27 -106 60
-226 3 -493 -174 -824 -163 -304 -335 -459 -627 -563 -102 -37 -186 -57 -344
-83 -65 -10 -120 -21 -123 -23 -5 -6 22 -57 76 -143 96 -157 163 -334 277
-734 32 -113 62 -208 66 -211 12 -8 684 -3 733 5 173 31 347 108 550 245 484
328 973 955 1091 1399 16 61 23 145 40 467 9 173 9 182 0 330 -8 124 -10 150
-21 223 -7 46 -8 52 -25 142 -23 115 -79 293 -132 415 -128 296 -323 510 -628
688 l-45 26 -65 -62z m160 -189 c211 -142 374 -365 475 -650 108 -307 138
-592 111 -1038 -4 -74 -10 -160 -11 -190 -10 -169 -89 -357 -250 -600 -377
-566 -901 -990 -1291 -1045 -53 -7 -562 -10 -569 -3 -3 3 -37 113 -76 244 -73
247 -117 370 -176 488 -19 37 -33 69 -31 70 4 3 96 25 124 30 11 2 63 18 115
36 203 68 396 188 519 325 25 27 51 56 59 65 36 37 137 206 196 325 137 279
193 489 182 685 -6 110 -7 113 -52 285 -41 160 -84 284 -136 393 -21 46 -39
85 -39 87 0 2 39 23 88 48 149 76 262 147 402 251 52 38 97 73 100 76 3 3 34
30 70 60 36 30 76 65 90 77 14 13 28 23 31 23 3 0 34 -19 69 -42z"/>
<path d="M791 5312 c-220 -308 -379 -638 -485 -1008 l-14 -52 46 -7 c26 -3 54
-8 62 -10 8 -1 35 -6 60 -10 173 -26 451 -91 655 -152 353 -106 658 -258 1030
-511 126 -86 419 -303 470 -349 12 -10 39 -32 62 -50 l41 -32 113 38 c152 52
206 74 322 131 350 175 573 420 661 724 31 106 36 143 41 281 5 158 -16 252
-86 398 -72 148 -213 339 -246 331 -24 -5 -629 -82 -713 -89 -36 -4 -76 -9
-90 -12 -14 -2 -97 -6 -185 -7 -181 -3 -329 13 -575 63 -426 87 -739 195 -944
326 -30 19 -77 48 -105 64 l-51 30 -69 -97z m289 -218 c182 -91 315 -138 585
-206 88 -22 169 -41 180 -44 143 -29 213 -42 265 -49 19 -3 50 -8 69 -11 47
-8 108 -15 161 -20 61 -5 289 -5 320 0 14 3 61 7 105 11 44 4 125 13 180 20
55 8 125 17 155 20 30 3 66 8 80 10 14 2 48 6 75 10 28 3 66 8 85 10 19 2 58
7 87 11 l51 6 52 -74 c99 -141 158 -291 163 -420 4 -98 -12 -228 -40 -313
-105 -322 -363 -547 -819 -713 l-82 -30 -68 56 c-444 357 -921 647 -1289 784
-155 58 -515 161 -635 182 -14 2 -46 9 -73 15 -26 6 -64 14 -85 17 -20 3 -51
9 -69 12 l-31 7 29 83 c70 203 183 432 310 628 l61 95 37 -22 c20 -12 83 -46
141 -75z"/>
<path d="M266 4141 c-3 -4 -7 -25 -10 -47 -2 -21 -10 -70 -16 -109 -6 -38 -14
-90 -17 -115 -2 -25 -7 -58 -9 -75 -9 -55 -11 -459 -3 -535 4 -41 10 -104 14
-140 7 -73 15 -123 19 -127 2 -2 68 -21 147 -42 200 -54 371 -120 509 -194 30
-16 75 -41 100 -55 124 -67 273 -182 387 -299 271 -277 397 -572 397 -928 0
-172 -28 -305 -106 -499 -21 -54 -35 -102 -31 -106 19 -17 218 -128 323 -181
153 -77 255 -120 436 -184 l151 -53 71 147 c80 164 136 303 177 436 35 115 72
269 81 331 3 27 9 67 13 90 22 120 17 429 -10 568 -5 28 -12 65 -15 81 -35
200 -160 511 -300 741 -231 381 -572 687 -1012 908 -263 132 -740 285 -1127
361 -72 14 -138 27 -147 29 -10 2 -20 1 -22 -3z m299 -222 c722 -170 1197
-402 1555 -759 190 -189 362 -444 465 -690 15 -36 34 -79 41 -96 23 -54 81
-265 99 -364 20 -106 30 -449 15 -516 -5 -21 -11 -61 -14 -88 -7 -58 -55 -264
-67 -287 -4 -9 -10 -27 -13 -40 -20 -98 -158 -419 -180 -419 -17 0 -106 32
-221 80 -118 50 -167 73 -301 147 l-100 55 32 98 c119 354 83 795 -91 1106
-131 234 -343 462 -580 622 -51 34 -273 162 -282 162 -1 0 -33 14 -70 31 -122
56 -299 119 -420 149 -24 6 -44 16 -44 23 -1 7 -3 21 -5 32 -16 99 -22 438
-11 565 9 91 19 180 22 198 2 9 4 20 4 24 1 3 9 4 19 2 9 -2 75 -18 147 -35z"/>
<path d="M6690 3987 c-207 -156 -283 -221 -435 -372 -184 -183 -207 -208 -306
-330 -177 -218 -304 -429 -387 -645 -82 -212 -109 -394 -78 -532 31 -140 166
-368 382 -645 59 -76 110 -142 114 -146 3 -4 19 57 35 135 41 212 76 296 201
483 84 128 211 288 312 395 67 70 73 82 106 180 64 191 110 378 131 531 3 26
8 58 10 70 12 60 20 230 19 404 -1 180 -5 249 -24 425 -5 41 -6 78 -4 82 13
21 -27 3 -76 -35z m-59 -309 c6 -302 -4 -496 -34 -653 -4 -20 -15 -78 -24
-125 -22 -125 -99 -371 -127 -410 -11 -16 -60 -73 -107 -127 -101 -117 -218
-270 -284 -372 -55 -87 -131 -234 -140 -273 -4 -16 -10 -28 -14 -28 -10 1
-164 239 -204 316 -20 39 -43 96 -51 125 -43 170 50 484 235 781 47 77 164
238 213 293 15 17 52 60 84 97 95 112 423 428 445 428 4 0 7 -24 8 -52z"/>
<path d="M5530 2852 c-41 -36 -86 -74 -100 -86 -66 -55 -156 -131 -160 -136
-22 -24 -298 -244 -392 -312 -251 -183 -524 -335 -722 -402 -85 -29 -281 -81
-341 -90 -20 -4 -40 -8 -44 -10 -3 -2 -33 -7 -66 -11 -32 -3 -62 -8 -65 -10
-14 -9 -233 -19 -391 -18 l-176 1 1 -177 c1 -186 -6 -276 -30 -405 -40 -210
-104 -394 -220 -635 -41 -85 -74 -155 -74 -157 0 -1 19 -5 43 -9 23 -4 51 -9
62 -11 81 -13 167 -26 205 -30 25 -3 54 -7 66 -9 11 -3 77 -8 145 -12 290 -16
663 2 684 34 6 8 66 101 135 206 105 160 384 564 427 617 24 30 288 387 373
505 218 302 357 534 660 1100 24 44 47 85 52 92 6 7 8 16 6 21 -1 5 -37 -20
-78 -56z m-531 -704 c-94 -151 -215 -323 -431 -615 -249 -334 -484 -667 -617
-873 -52 -80 -95 -147 -97 -148 -8 -11 -146 -17 -364 -17 -251 0 -355 7 -472
31 l-27 5 39 83 c122 266 196 570 207 856 3 74 6 136 7 136 0 1 71 4 156 8
187 8 289 20 500 61 60 11 283 76 365 106 87 32 345 158 402 197 15 10 80 53
143 94 63 42 142 96 175 121 33 24 61 43 63 42 2 -2 -20 -41 -49 -87z"/>
<path d="M255 2883 c3 -10 24 -82 46 -161 97 -352 214 -613 422 -939 29 -45
55 -83 58 -85 4 -1 42 29 84 67 43 39 98 84 124 102 56 38 59 33 55 -82 -10
-230 -10 -334 -2 -372 7 -34 25 -57 101 -131 51 -50 112 -108 137 -130 187
-163 168 -157 189 -67 55 239 52 516 -6 730 -74 272 -263 538 -528 742 -186
143 -308 207 -599 314 -93 34 -90 34 -81 12z m332 -294 c88 -47 168 -99 263
-173 269 -208 442 -486 486 -781 9 -63 12 -305 4 -310 -4 -2 -37 27 -74 64
-78 79 -72 44 -62 341 6 192 -2 240 -50 291 -65 69 -154 56 -293 -43 l-44 -31
-17 23 c-36 48 -152 270 -199 382 -41 96 -101 260 -101 274 0 8 9 4 87 -37z"/>
<path d="M5227 1613 c-86 -87 -166 -169 -177 -183 -12 -14 -54 -61 -95 -105
-40 -44 -123 -141 -185 -215 -62 -74 -122 -146 -134 -160 -69 -82 -443 -576
-430 -567 6 3 21 8 35 11 55 11 409 129 517 172 215 85 419 192 613 320 82 54
121 82 224 161 6 5 53 44 105 87 52 44 97 81 98 82 7 5 -394 547 -407 552 -4
1 -77 -69 -164 -155z m252 -232 l100 -133 -42 -36 c-186 -155 -405 -295 -643
-408 -130 -62 -235 -106 -241 -101 -5 5 256 324 362 443 5 6 42 47 80 90 110
124 268 285 276 282 5 -2 53 -63 108 -137z"/>
</g>
</svg>
