<?xml version="1.0" standalone="no"?>
<!DOCTYPE svg PUBLIC "-//W3C//DTD SVG 20010904//EN"
 "http://www.w3.org/TR/2001/REC-SVG-20010904/DTD/svg10.dtd">
<svg version="1.0" xmlns="http://www.w3.org/2000/svg"
 width="358.000000pt" height="358.000000pt" viewBox="0 0 358.000000 358.000000"
 preserveAspectRatio="xMidYMid meet">
<metadata>
Created by potrace 1.11, written by Peter Selinger 2001-2013
</metadata>
<g transform="translate(0.000000,358.000000) scale(0.100000,-0.100000)"
fill="#000000" stroke="none">
<path d="M1733 3193 c-68 -36 -101 -70 -120 -124 -42 -118 -66 -118 -356 -8
l-77 29 -70 -35 c-89 -45 -168 -95 -250 -158 -69 -54 -190 -166 -190 -177 0
-11 165 -84 255 -115 177 -59 307 -88 405 -90 256 -6 551 100 806 291 85 63
274 249 274 269 0 7 -8 15 -17 18 -10 3 -58 20 -107 37 -111 39 -245 67 -356
75 -47 3 -99 8 -117 9 -20 3 -50 -6 -80 -21z"/>
<path d="M2481 2975 l-33 -56 72 -72 c40 -39 92 -99 117 -132 73 -97 142 -248
158 -345 3 -19 8 -42 10 -50 18 -66 25 -300 12 -395 -4 -28 -16 -83 -27 -123
l-18 -74 62 59 c105 99 247 209 358 279 38 23 47 33 42 49 -16 58 -46 152 -53
170 -111 256 -245 439 -434 590 -64 52 -218 155 -230 155 -1 0 -17 -25 -36
-55z"/>
<path d="M2290 2798 c-98 -91 -282 -210 -369 -239 -8 -3 0 -28 23 -74 46 -95
87 -233 91 -310 4 -81 -15 -156 -69 -270 -74 -154 -138 -224 -264 -285 -56
-27 -184 -60 -232 -60 l-21 0 21 -30 c32 -45 85 -165 110 -250 12 -41 30 -102
39 -135 l18 -60 139 -2 c155 -1 224 8 302 43 230 102 538 443 607 674 12 39
17 109 21 245 4 164 1 203 -16 288 -34 163 -95 292 -179 380 -38 41 -152 127
-167 127 -5 0 -29 -19 -54 -42z"/>
<path d="M537 2548 c-66 -101 -128 -229 -158 -323 -12 -38 -22 -74 -23 -79 -1
-9 3 -10 74 -21 235 -35 486 -128 678 -250 76 -48 257 -180 292 -213 31 -29
71 -25 173 20 244 107 373 280 362 486 -1 37 -5 76 -8 87 -12 44 -47 113 -83
162 -42 56 -33 54 -139 38 -16 -2 -52 -7 -80 -10 -27 -4 -61 -8 -75 -11 -28
-4 -182 -17 -220 -18 -101 -2 -388 57 -525 109 -38 14 -100 44 -137 65 -36 22
-69 40 -72 40 -2 0 -29 -37 -59 -82z"/>
<path d="M336 2052 c-23 -38 -36 -312 -21 -427 9 -63 9 -62 48 -70 184 -37
413 -173 523 -309 142 -174 179 -412 95 -602 l-19 -43 46 -30 c81 -51 308
-151 344 -151 15 0 119 257 133 328 57 303 12 520 -161 782 -160 242 -434 404
-854 505 -116 27 -126 29 -134 17z"/>
<path d="M3189 1951 c-73 -55 -192 -171 -260 -252 -180 -213 -265 -446 -213
-581 26 -68 186 -300 197 -288 3 3 7 23 10 46 8 58 38 133 77 190 39 57 138
184 155 199 6 6 19 21 28 35 19 29 73 240 82 320 11 101 5 362 -10 378 -1 1
-31 -20 -66 -47z"/>
<path d="M346 1462 c28 -133 115 -330 202 -461 8 -10 21 -5 62 28 80 63 82 61
77 -76 l-5 -118 80 -77 c45 -43 84 -75 88 -73 17 10 28 214 15 280 -43 221
-229 417 -488 511 l-37 13 6 -27z"/>
<path d="M2655 1424 c-74 -68 -240 -197 -308 -242 -200 -129 -404 -192 -633
-194 l-104 -1 1 -76 c2 -158 -39 -321 -121 -481 l-20 -39 53 -10 c88 -17 166
-24 276 -23 96 0 180 7 186 14 1 2 50 74 108 160 58 86 145 210 194 275 108
143 207 286 260 373 45 74 156 280 151 280 -2 0 -21 -16 -43 -36z"/>
<path d="M2564 898 c-62 -64 -177 -194 -240 -270 -57 -68 -173 -228 -165 -228
5 0 51 14 102 31 111 36 249 100 336 155 80 51 201 145 207 162 6 14 -143 222
-159 222 -6 0 -43 -33 -81 -72z"/>
</g>
</svg>
