<?xml version="1.0" encoding="utf-8"?>
<!-- Generator: Adobe Illustrator 16.0.0, SVG Export Plug-In . SVG Version: 6.00 Build 0)  -->
<!DOCTYPE svg PUBLIC "-//W3C//DTD SVG 1.1//EN" "http://www.w3.org/Graphics/SVG/1.1/DTD/svg11.dtd">
<svg version="1.1" id="Layer_1" xmlns="http://www.w3.org/2000/svg" xmlns:xlink="http://www.w3.org/1999/xlink" x="0px" y="0px"
	 width="54px" height="54px" viewBox="0 0 54 54" enable-background="new 0 0 54 54" xml:space="preserve">
<g>
	<path fill="none" stroke="#FFFFFF" stroke-width="0.8096" stroke-miterlimit="10" d="M45.507,16.377
		c0.727,3.736,0.686,7.085-0.123,10.041c1.795-1.712,3.713-3.229,5.752-4.553c0.486-0.314,0.949-0.609,1.393-0.884
		c-1.654-6.841-6.207-12.613-12.348-16.055c-0.277,0.451-0.562,0.917-0.869,1.406C42.714,9.292,44.778,12.641,45.507,16.377z"/>
	<path fill="none" stroke="#FFFFFF" stroke-width="0.8096" stroke-miterlimit="10" d="M47.452,28.871
		c-1.213,1.481-2.141,2.959-2.787,4.438c-0.646,1.48-0.969,2.765-0.969,3.855c0,0.777,0.367,1.752,1.102,2.92
		c0.736,1.169,1.43,2.14,2.084,2.916c0.16-1.244,0.725-2.564,1.691-3.967c0.922-1.337,1.953-2.602,3.096-3.796
		c0.994-2.664,1.539-5.535,1.539-8.529c0-1.065-0.07-2.116-0.203-3.147c-0.488,0.338-0.969,0.704-1.436,1.106
		C50.034,25.99,48.661,27.393,47.452,28.871z"/>
	<path fill="none" stroke="#FFFFFF" stroke-width="0.8096" stroke-miterlimit="10" d="M15.308,12.705
		c1.611,0.392,2.66,0.585,3.146,0.585c3.062,0,6.088-0.661,9.072-1.988c2.984-1.326,5.646-3.119,7.984-5.384
		c0.742-0.718,1.436-1.473,2.08-2.263c-3.238-1.377-6.82-2.144-10.59-2.144c-0.088,0-0.174,0.002-0.262,0.003
		c-0.373,0.229-0.752,0.448-1.148,0.649c-2.285,1.172-0.797,3.625-3.732,3.625c-0.588,0-5.252-1.908-5.803-1.979
		c-3.281,1.451-6.199,3.537-8.58,6.094c0.814,0.416,1.691,0.802,2.631,1.157C11.96,11.765,13.694,12.313,15.308,12.705z"/>
	<path fill="none" stroke="#FFFFFF" stroke-width="0.8096" stroke-miterlimit="10" d="M10.146,43.319
		c0-3.114-1.299-5.776-3.893-7.981c-1.471-1.248-3.047-2.142-4.725-2.684c0.705,2.802,1.896,5.421,3.484,7.769
		c4.092-3.935,2.121,1.687,2.654,3.296c0.701,0.737,1.449,1.434,2.234,2.086c0.004-0.011,0.008-0.021,0.008-0.033
		C10.065,44.916,10.146,44.1,10.146,43.319z"/>
	<path fill="none" stroke="#FFFFFF" stroke-width="0.8096" stroke-miterlimit="10" d="M20.761,28.97
		c5.668-1.718,8.502-4.762,8.502-9.138c0-1.561-0.729-3.202-2.184-4.919c-2.27,0.301-4.055,0.525-5.348,0.675
		c-1.295,0.152-2.268,0.226-2.914,0.226c-1.781,0-4.291-0.428-7.531-1.284c-2.152-0.568-4.02-1.398-5.6-2.484
		c-1.779,2.387-3.135,5.084-3.963,7.992c2.605,0.399,5.068,0.99,7.379,1.785C12.503,22.994,16.388,25.376,20.761,28.97z"/>
	<path fill="none" stroke="#FFFFFF" stroke-width="0.8096" stroke-miterlimit="10" d="M43.04,22.842
		c0.062-0.701,0.096-1.362,0.096-1.985c0-2.646-0.48-5.1-1.436-7.357c-0.959-2.258-2.555-4.01-4.787-5.254
		c-2.234,2.179-4.639,3.814-7.211,4.902c0.648,1.092,1.176,2.337,1.58,3.739c0.402,1.401,0.605,2.413,0.605,3.036
		c0,1.868-0.773,4.087-2.316,6.656c-1.543,2.567-4.182,4.085-7.916,4.553c0.805,1.254,1.408,2.585,1.812,3.993
		c0.404,1.407,0.768,2.661,1.09,3.756h4.354c1.453,0,2.986-0.507,4.598-1.525c1.611-1.017,3.105-2.27,4.477-3.757
		s2.543-3.05,3.51-4.686c0.965-1.633,1.451-3.075,1.451-4.319C42.946,24.126,42.976,23.543,43.04,22.842z"/>
	<path fill="none" stroke="#FFFFFF" stroke-width="0.8096" stroke-miterlimit="10" d="M42.315,41.76
		c-1.461,1.402-3.035,3.114-4.73,5.139c-1.082,1.288-2.113,2.61-3.096,3.962c3.91-1.119,7.439-3.093,10.35-5.695
		C43.981,43.98,43.138,42.845,42.315,41.76z"/>
	<path fill="none" stroke="#FFFFFF" stroke-width="0.8096" stroke-miterlimit="10" d="M21.579,41.331
		c0-3.122-0.955-6.206-2.865-9.253c-1.91-3.044-4.713-5.427-8.412-7.146c-1.779-0.78-3.725-1.444-5.828-1.99
		c-1.42-0.369-2.508-0.613-3.264-0.733c-0.273,1.461-0.418,2.965-0.418,4.5c0,1.231,0.094,2.442,0.271,3.628
		c2.178,0.471,4.205,1.262,6.082,2.379c1.941,1.16,3.52,2.627,4.736,4.403c1.215,1.777,1.824,3.827,1.824,6.153
		c0,1.513-0.346,3.023-1.039,4.534c1.943,1.223,4.064,2.203,6.318,2.898c0.588-1.084,1.088-2.215,1.498-3.397
		C21.212,45.2,21.579,43.207,21.579,41.331z"/>
	<path fill="none" stroke="#FFFFFF" stroke-width="0.8096" stroke-miterlimit="10" d="M37.175,41.854
		c1.771-2.326,3.383-4.888,4.836-7.693c-3.744,3.273-6.994,5.334-9.76,6.189c-2.766,0.856-5.447,1.208-8.049,1.054
		c0.162,2.65-0.281,5.26-1.328,7.828c-0.311,0.758-0.65,1.484-1.016,2.188c1.664,0.317,3.383,0.486,5.143,0.486
		c1.105,0,2.193-0.066,3.262-0.195c0.627-1.017,1.279-2.02,1.953-3.008C33.749,46.465,35.399,44.182,37.175,41.854z"/>
</g>
</svg>
